<svg width="20" height="21" viewBox="0 0 20 21" fill="none" xmlns="http://www.w3.org/2000/svg">
<mask id="mask0_185_784" style="mask-type:alpha" maskUnits="userSpaceOnUse" x="0" y="0" width="20" height="21">
<rect y="0.5" width="20" height="20" fill="#D9D9D9"/>
</mask>
<g mask="url(#mask0_185_784)">
<path d="M4.16667 15.375C4.91667 14.6389 5.78833 14.0589 6.78167 13.635C7.77444 13.2117 8.84722 13 10 13C11.1528 13 12.2258 13.2117 13.2192 13.635C14.2119 14.0589 15.0833 14.6389 15.8333 15.375V4.66667H4.16667V15.375ZM10 11.3333C9.19444 11.3333 8.50694 11.0486 7.9375 10.4792C7.36806 9.90972 7.08333 9.22222 7.08333 8.41667C7.08333 7.61111 7.36806 6.92361 7.9375 6.35417C8.50694 5.78472 9.19444 5.5 10 5.5C10.8056 5.5 11.4931 5.78472 12.0625 6.35417C12.6319 6.92361 12.9167 7.61111 12.9167 8.41667C12.9167 9.22222 12.6319 9.90972 12.0625 10.4792C11.4931 11.0486 10.8056 11.3333 10 11.3333ZM4.16667 18C3.70833 18 3.31583 17.8369 2.98917 17.5108C2.66306 17.1842 2.5 16.7917 2.5 16.3333V4.66667C2.5 4.20833 2.66306 3.81583 2.98917 3.48917C3.31583 3.16306 3.70833 3 4.16667 3H15.8333C16.2917 3 16.6842 3.16306 17.0108 3.48917C17.3369 3.81583 17.5 4.20833 17.5 4.66667V16.3333C17.5 16.7917 17.3369 17.1842 17.0108 17.5108C16.6842 17.8369 16.2917 18 15.8333 18H4.16667Z" fill="white"/>
</g>
</svg>
