<svg width="20" height="21" viewBox="0 0 20 21" fill="none" xmlns="http://www.w3.org/2000/svg">
<mask id="mask0_185_789" style="mask-type:alpha" maskUnits="userSpaceOnUse" x="0" y="0" width="20" height="21">
<rect y="0.5" width="20" height="20" fill="#D9D9D9"/>
</mask>
<g mask="url(#mask0_185_789)">
<path d="M3.7085 16.3335C3.37517 16.3335 3.09033 16.2153 2.854 15.979C2.618 15.743 2.5 15.4583 2.5 15.125V5.875C2.5 5.54167 2.618 5.257 2.854 5.021C3.09033 4.78467 3.37517 4.6665 3.7085 4.6665H16.2915C16.6248 4.6665 16.9097 4.78467 17.146 5.021C17.382 5.257 17.5 5.54167 17.5 5.875V15.125C17.5 15.4583 17.382 15.743 17.146 15.979C16.9097 16.2153 16.6248 16.3335 16.2915 16.3335H3.7085ZM3.2085 7.0625H16.7915V5.875C16.7915 5.736 16.743 5.618 16.646 5.521C16.5487 5.42367 16.4305 5.375 16.2915 5.375H3.7085C3.5695 5.375 3.45133 5.42367 3.354 5.521C3.257 5.618 3.2085 5.736 3.2085 5.875V7.0625ZM9.125 12.5625L7.604 11.0415C7.53467 10.9722 7.45133 10.9375 7.354 10.9375C7.257 10.9375 7.16683 10.9722 7.0835 11.0415C7.01383 11.1248 6.979 11.2117 6.979 11.302C6.979 11.3923 7.01383 11.4792 7.0835 11.5625L8.6875 13.1665C8.8125 13.2915 8.95833 13.354 9.125 13.354C9.29167 13.354 9.4375 13.2915 9.5625 13.1665L12.9165 9.8125C12.9862 9.72917 13.021 9.63884 13.021 9.5415C13.021 9.4445 12.9862 9.36117 12.9165 9.2915C12.8332 9.22217 12.7463 9.1875 12.656 9.1875C12.566 9.1875 12.4793 9.22217 12.396 9.2915L9.125 12.5625Z" fill="white"/>
</g>
</svg>
