<svg width="20" height="21" viewBox="0 0 20 21" fill="none" xmlns="http://www.w3.org/2000/svg">
<mask id="mask0_185_797" style="mask-type:alpha" maskUnits="userSpaceOnUse" x="0" y="0" width="20" height="21">
<rect y="0.5" width="20" height="20" fill="#D9D9D9"/>
</mask>
<g mask="url(#mask0_185_797)">
<path d="M15.7083 18.8125C15.5972 18.8125 15.493 18.7953 15.3958 18.7609C15.2986 18.7259 15.2083 18.6667 15.125 18.5834L10.7083 14.1667V13.3334L12.8125 11.2292H13.6458L18.0625 15.6459C18.1458 15.7292 18.205 15.8195 18.24 15.9167C18.2744 16.0139 18.2916 16.1181 18.2916 16.2292C18.2916 16.3403 18.2744 16.4445 18.24 16.5417C18.205 16.6389 18.1458 16.7292 18.0625 16.8125L16.2916 18.5834C16.2083 18.6667 16.118 18.7259 16.0208 18.7609C15.9236 18.7953 15.8194 18.8125 15.7083 18.8125ZM15.7083 16.8334L16.3125 16.2292L12.7708 12.6875L12.1666 13.2917L15.7083 16.8334ZM4.27079 18.8334C4.15968 18.8334 4.05218 18.8125 3.94829 18.7709C3.84385 18.7292 3.74996 18.6667 3.66663 18.5834L1.91663 16.8334C1.83329 16.75 1.77079 16.6562 1.72913 16.5517C1.68746 16.4478 1.66663 16.3403 1.66663 16.2292C1.66663 16.1181 1.68746 16.0139 1.72913 15.9167C1.77079 15.8195 1.83329 15.7292 1.91663 15.6459L6.33329 11.2292H8.10413L8.81246 10.5209L5.37496 7.08337H4.18746L1.66663 4.56254L4.02079 2.20837L6.54163 4.72921V5.91671L9.97913 9.35421L12.3958 6.93754L11.5 6.04171L12.6666 4.87504H10.3125L9.72913 4.29171L12.6875 1.33337L13.2708 1.91671V4.27087L14.4375 3.10421L17.3958 6.06254C17.6458 6.29865 17.83 6.56949 17.9483 6.87504C18.0661 7.1806 18.125 7.4931 18.125 7.81254C18.125 8.13198 18.0661 8.44448 17.9483 8.75004C17.83 9.0556 17.6458 9.33337 17.3958 9.58337L15.625 7.81254L14.4583 8.97921L13.5833 8.10421L9.27079 12.4167V14.1667L4.85413 18.5834C4.77079 18.6667 4.68051 18.7292 4.58329 18.7709C4.48607 18.8125 4.3819 18.8334 4.27079 18.8334ZM4.27079 16.8334L7.81246 13.2917L7.20829 12.6875L3.66663 16.2292L4.27079 16.8334Z" fill="white"/>
</g>
</svg>
