<svg width="20" height="21" viewBox="0 0 20 21" fill="none" xmlns="http://www.w3.org/2000/svg">
<mask id="mask0_185_776" style="mask-type:alpha" maskUnits="userSpaceOnUse" x="0" y="0" width="20" height="21">
<rect y="0.5" width="20" height="20" fill="#D9D9D9"/>
</mask>
<g mask="url(#mask0_185_776)">
<path d="M4.875 17.1665C4.68067 17.1665 4.514 17.0972 4.375 16.9585C4.236 16.8195 4.1665 16.6528 4.1665 16.4585V8.771C4.1665 8.65967 4.19084 8.5555 4.2395 8.4585C4.28817 8.36117 4.36117 8.27783 4.4585 8.2085L9.5835 4.3335C9.65284 4.29183 9.71867 4.257 9.781 4.229C9.84367 4.20133 9.91667 4.1875 10 4.1875C10.0833 4.1875 10.1597 4.20133 10.229 4.229C10.2987 4.257 10.3612 4.29183 10.4165 4.3335L15.5415 8.2085C15.6388 8.27783 15.7118 8.36117 15.7605 8.4585C15.8092 8.5555 15.8335 8.65967 15.8335 8.771V16.4585C15.8335 16.6528 15.764 16.8195 15.625 16.9585C15.486 17.0972 15.3193 17.1665 15.125 17.1665H11.5V11.854H8.5V17.1665H4.875Z" fill="white"/>
</g>
</svg>
