<svg width="20" height="21" viewBox="0 0 20 21" fill="none" xmlns="http://www.w3.org/2000/svg">
<mask id="mask0_185_802" style="mask-type:alpha" maskUnits="userSpaceOnUse" x="0" y="0" width="20" height="21">
<rect y="0.5" width="20" height="20" fill="#D9D9D9"/>
</mask>
<g mask="url(#mask0_185_802)">
<path d="M4.16667 18C3.70833 18 3.31583 17.8369 2.98917 17.5108C2.66306 17.1842 2.5 16.7917 2.5 16.3333V4.66667C2.5 4.20833 2.66306 3.81583 2.98917 3.48917C3.31583 3.16306 3.70833 3 4.16667 3H10V4.66667H4.16667V16.3333H10V18H4.16667ZM13.3333 14.6667L12.1875 13.4583L14.3125 11.3333H7.5V9.66667H14.3125L12.1875 7.54167L13.3333 6.33333L17.5 10.5L13.3333 14.6667Z" fill="#FFDF9D"/>
</g>
</svg>
