<svg width="20" height="21" viewBox="0 0 20 21" fill="none" xmlns="http://www.w3.org/2000/svg">
<mask id="mask0_185_792" style="mask-type:alpha" maskUnits="userSpaceOnUse" x="0" y="0" width="20" height="21">
<rect y="0.5" width="20" height="20" fill="#D9D9D9"/>
</mask>
<g mask="url(#mask0_185_792)">
<path d="M18.3333 8.83333L17.8125 7.6875L16.6667 7.16667L17.8125 6.64583L18.3333 5.5L18.8542 6.64583L20 7.16667L18.8542 7.6875L18.3333 8.83333ZM15.8333 5.5L15.0417 3.79167L13.3333 3L15.0417 2.20833L15.8333 0.5L16.625 2.20833L18.3333 3L16.625 3.79167L15.8333 5.5ZM7.5 18.8333C7.04167 18.8333 6.64944 18.6703 6.32333 18.3442C5.99667 18.0175 5.83333 17.625 5.83333 17.1667H9.16667C9.16667 17.625 9.00361 18.0175 8.6775 18.3442C8.35083 18.6703 7.95833 18.8333 7.5 18.8333ZM4.16667 16.3333V14.6667H10.8333V16.3333H4.16667ZM4.375 13.8333C3.41667 13.2639 2.65639 12.5 2.09417 11.5417C1.53139 10.5833 1.25 9.54167 1.25 8.41667C1.25 6.68056 1.85778 5.205 3.07333 3.99C4.28833 2.77444 5.76389 2.16667 7.5 2.16667C9.23611 2.16667 10.7117 2.77444 11.9267 3.99C13.1422 5.205 13.75 6.68056 13.75 8.41667C13.75 9.54167 13.4689 10.5833 12.9067 11.5417C12.3439 12.5 11.5833 13.2639 10.625 13.8333H4.375Z" fill="white"/>
</g>
</svg>
