<svg width="20" height="22" viewBox="0 0 20 22" fill="none" xmlns="http://www.w3.org/2000/svg">
<path d="M8.30807 14.45L5.27497 11.4169C5.1779 11.3194 5.06614 11.266 4.93967 11.2566C4.8132 11.2468 4.69164 11.3003 4.57497 11.4169C4.4779 11.514 4.42937 11.6258 4.42937 11.7522C4.42937 11.8787 4.4779 12.0003 4.57497 12.1169L7.72497 15.2669C7.88037 15.4419 8.06984 15.5294 8.29337 15.5294C8.51737 15.5294 8.72644 15.4419 8.92057 15.2669L15.3669 8.79193C15.4639 8.6944 15.5174 8.57773 15.5272 8.44193C15.537 8.30566 15.4835 8.189 15.3669 8.09193C15.2693 7.97526 15.1576 7.91693 15.0316 7.91693C14.9051 7.91693 14.7835 7.97526 14.6669 8.09193L8.30807 14.45ZM2.35807 20.3419H17.6419C17.8169 20.3419 17.9772 20.2689 18.1228 20.1228C18.2688 19.9772 18.3419 19.8169 18.3419 19.6419V4.35813C18.3419 4.18313 18.2688 4.02283 18.1228 3.87723C17.9772 3.73116 17.8169 3.65813 17.6419 3.65813H2.35807C2.18307 3.65813 2.02277 3.73116 1.87717 3.87723C1.7311 4.02283 1.65807 4.18313 1.65807 4.35813V19.6419C1.65807 19.8169 1.7311 19.9772 1.87717 20.1228C2.02277 20.2689 2.18307 20.3419 2.35807 20.3419ZM2.35807 21.3331C1.911 21.3331 1.51737 21.163 1.17717 20.8228C0.83697 20.4826 0.66687 20.089 0.66687 19.6419V4.35813C0.66687 3.91106 0.83697 3.51743 1.17717 3.17723C1.51737 2.83703 1.911 2.66693 2.35807 2.66693H8.19187C8.036 2.0836 8.14287 1.5488 8.51247 1.06253C8.88207 0.576263 9.3779 0.33313 9.99997 0.33313C10.6416 0.33313 11.1473 0.576263 11.5169 1.06253C11.886 1.5488 11.9831 2.0836 11.8081 2.66693H17.6419C18.0889 2.66693 18.4826 2.83703 18.8228 3.17723C19.163 3.51743 19.3331 3.91106 19.3331 4.35813V19.6419C19.3331 20.089 19.163 20.4826 18.8228 20.8228C18.4826 21.163 18.0889 21.3331 17.6419 21.3331H2.35807ZM9.99997 3.13313C10.2529 3.13313 10.4718 3.04096 10.6566 2.85663C10.8409 2.67183 10.9331 2.45296 10.9331 2.20003C10.9331 1.9471 10.8409 1.73313 10.6566 1.55813C10.4718 1.38313 10.2529 1.29563 9.99997 1.29563C9.74704 1.29563 9.53307 1.38313 9.35807 1.55813C9.18307 1.73313 9.09557 1.9471 9.09557 2.20003C9.09557 2.45296 9.18307 2.67183 9.35807 2.85663C9.53307 3.04096 9.74704 3.13313 9.99997 3.13313Z" fill="#1C1B1F"/>
</svg>
