<svg width="21" height="21" viewBox="0 0 21 21" fill="none" xmlns="http://www.w3.org/2000/svg">
    <path d="M0.59472 17.7077C0.43176 17.7077 0.29176 17.6605 0.17472 17.5661C0.0582402 17.4716 0 17.3581 0 17.2255C0 17.0929 0.0582402 16.9794 0.17472 16.885C0.29176 16.7906 0.43176 16.7433 0.59472 16.7433H2.835V8.00253C2.835 6.56503 3.41824 5.25034 4.58472 4.05847C5.75176 2.86661 7.26852 2.13809 9.135 1.87293V1.07881C9.135 0.738276 9.26324 0.473341 9.51972 0.284005C9.77676 0.0946681 10.1035 0 10.5 0C10.8965 0 11.2232 0.0946681 11.4803 0.284005C11.7368 0.473341 11.865 0.738276 11.865 1.07881V1.87293C13.7315 2.13809 15.2482 2.86661 16.4153 4.05847C17.5818 5.25034 18.165 6.56503 18.165 8.00253V16.7433H20.4053C20.5682 16.7433 20.7082 16.7906 20.8253 16.885C20.9418 16.9794 21 17.0929 21 17.2255C21 17.3767 20.9418 17.495 20.8253 17.5804C20.7082 17.6653 20.5682 17.7077 20.4053 17.7077H0.59472ZM10.5 21C9.89352 21 9.36264 20.825 8.90736 20.4749C8.45264 20.1248 8.22528 19.6849 8.22528 19.155H12.7747C12.7747 19.6849 12.5591 20.1248 12.1279 20.4749C11.6962 20.825 11.1535 21 10.5 21ZM4.02528 16.7433H16.9747V8.00253C16.9747 6.56503 16.3447 5.33071 15.0847 4.29957C13.8247 3.26844 12.2965 2.75287 10.5 2.75287C8.70352 2.75287 7.17528 3.26844 5.91528 4.29957C4.65528 5.33071 4.02528 6.56503 4.02528 8.00253V16.7433Z" fill="#1C1B1F"></path>
</svg>